<svg id="Capa_1" enable-background="new 0 0 512 512" height="512" viewBox="0 0 512 512" width="512" xmlns="http://www.w3.org/2000/svg"><path d="m276 374c0 11.046-8.954 20-20 20h-118c-11.046 0-20-8.954-20-20s8.954-20 20-20h118c11.046 0 20 8.954 20 20zm236-253.85v234.183c0 30.708-11.958 59.576-33.672 81.289l-42.706 42.707c-21.713 21.713-50.581 33.671-81.289 33.671h-234.183c-66.411 0-120.15-53.745-120.15-120.15v-271.7c0-66.411 53.745-120.15 120.15-120.15h271.7c66.411 0 120.15 53.745 120.15 120.15zm-42.683 254.183h-54.984c-22.056 0-40 17.944-40 40v54.984c12.362-3.4 23.692-9.961 33.004-19.272l42.707-42.708c9.312-9.312 15.873-20.642 19.273-33.004zm2.683-254.183c0-44.301-35.851-80.15-80.15-80.15h-271.7c-44.301 0-80.15 35.851-80.15 80.15v271.7c0 44.301 35.851 80.15 80.15 80.15h214.183v-57.667c0-44.112 35.888-80 80-80h57.667zm-98 115.85h-236c-11.046 0-20 8.954-20 20s8.954 20 20 20h236c11.046 0 20-8.954 20-20s-8.954-20-20-20zm0-118h-236c-11.046 0-20 8.954-20 20s8.954 20 20 20h236c11.046 0 20-8.954 20-20s-8.954-20-20-20z"/></svg>